#N canvas 289 22 1000 958 10;
#X obj 28 -496 *~;
#X obj -85 -494 *~;
#X obj -35 -459 +~;
#X obj -35 -282 *~;
#X obj -20 -423 vsl 15 128 0 1 0 0 empty empty oscillators 0 -8 0 8
-262144 -1 -1 10900 1;
#X floatatom -85 -711 5 0 0 0 - - -;
#X floatatom 28 -711 5 0 0 0 - - -;
#X obj 28 -690 sig~;
#X obj -83 -851 pddp/dsp;
#X obj 190 -16 dac~;
#X obj 190 -49 *~;
#X text 180 8 hear it;
#X obj 337 -133 vsl 15 128 0 1 0 0 empty empty master_level 0 -8 0
8 -262144 -1 -1 7600 1;
#X msg 467 -605 1;
#X text 369 -607 starts playback;
#X obj 509 -438 vsl 15 128 0 1 0 0 empty empty sample_dry 0 -8 0 8
-262144 -1 -1 0 1;
#X obj 494 -298 *~;
#X obj 467 -700 t b b;
#X obj 494 -526 +~;
#X obj 191 -119 r~ audio;
#X obj 632 -300 *~;
#X obj 647 -438 vsl 15 128 0 1 0 0 empty empty sample_wet 0 -8 0 8
-262144 -1 -1 0 1;
#X obj 494 -274 s~ audio_sample;
#X obj 632 -275 s~ audio_sample_delay;
#X obj 191 -98 r~ audio_sample;
#X floatatom 707 -578 5 0 0 0 - - -;
#X text 705 -600 delay time (s);
#X obj 632 -477 delay~ 522050;
#X obj 707 -501 * 44100;
#X obj 494 -568 readsf~ 2;
#X obj -85 -689 sig~;
#X text -89 -729 FREQUENCY 1;
#X text 23 -729 FREQUENCY 2;
#X obj 107 -666 phasor~;
#X obj 162 -666 cycle~;
#X msg 494 -666 open samples/bell1.wav;
#X obj 467 -725 bng 15 250 50 0 empty empty empty 17 7 0 10 -262144
-1 -1;
#X obj 190 -77 r~ audio_sample_delay;
#X text 465 -757 Play an audio file;
#X obj -70 -632 vsl 15 128 0 1 0 0 empty empty osc1 0 -8 0 8 -262144
-1 -1 12700 1;
#X obj 43 -633 vsl 15 128 0 1 0 0 empty empty osc2 0 -8 0 8 -262144
-1 -1 12700 1;
#X obj -85 -666 osc~ 330;
#X obj 28 -667 osc~ 220;
#X obj -35 -253 s~ audio;
#X text 177 -152 Main DAC;
#X text -86 -805 Play specific frequencies;
#X text -87 -760 Recommended range: 200 - 13000;
#X text -86 -774 Human Audible Range: 20 - 20000;
#X connect 0 0 2 1;
#X connect 1 0 2 0;
#X connect 2 0 3 0;
#X connect 3 0 43 0;
#X connect 4 0 3 1;
#X connect 5 0 30 0;
#X connect 6 0 7 0;
#X connect 7 0 42 0;
#X connect 10 0 9 0;
#X connect 10 0 9 1;
#X connect 12 0 10 1;
#X connect 13 0 29 0;
#X connect 15 0 16 1;
#X connect 16 0 22 0;
#X connect 17 0 13 0;
#X connect 17 1 35 0;
#X connect 18 0 16 0;
#X connect 18 0 27 0;
#X connect 19 0 10 0;
#X connect 20 0 23 0;
#X connect 21 0 20 1;
#X connect 24 0 10 0;
#X connect 25 0 28 0;
#X connect 27 0 20 0;
#X connect 28 0 27 1;
#X connect 29 0 18 0;
#X connect 29 1 18 1;
#X connect 30 0 41 0;
#X connect 35 0 29 0;
#X connect 36 0 17 0;
#X connect 37 0 10 0;
#X connect 39 0 1 1;
#X connect 40 0 0 1;
#X connect 41 0 1 0;
#X connect 42 0 0 0;
#X coords 0 0 1 1 85 60 0;
