#N canvas 102 22 1332 998 10;
#X obj 43 478 hsl 200 20 0 1 0 0 empty empty crossfade 20 10 0 14 -257472
-1 -1 0 1;
#X obj 152 568 *~;
#X obj 40 537 -;
#X obj 40 564 *~;
#X obj 94 616 +~;
#X msg 40 517 1 \$1;
#X obj 93 789 *~;
#X obj 169 378 osc~ 220;
#X obj 108 650 vsl 15 128 0 1 0 0 empty empty osc 0 -8 0 8 -262144
-1 -1 0 1;
#X floatatom 56 334 5 0 0 0 - - -;
#X floatatom 169 334 5 0 0 0 - - -;
#X obj 169 355 sig~;
#X obj 1148 -231 pddp/dsp;
#X obj 7 -124 arduino 2;
#X msg 18 -175 close;
#X msg 17 -152 devices;
#X msg 7 -198 open \$1;
#X floatatom 7 -223 5 0 0 0 - - -;
#X obj 7 -97 route analog;
#X floatatom 7 -6 5 0 0 0 - - -;
#X floatatom 62 -6 5 0 0 0 - - -;
#X floatatom 118 -6 5 0 0 0 - - -;
#X obj 7 20 vsl 15 75 0 1 0 0 empty empty x 0 85 0 10 -262144 -1 -1
2886 1;
#X obj 62 20 vsl 15 75 0 1 0 0 empty empty y 0 85 0 10 -262144 -1 -1
1736 1;
#X obj 118 20 vsl 15 75 0 1 0 0 empty empty z 0 85 0 10 -262144 -1
-1 1396 1;
#X floatatom 317 -4 5 0 0 0 - - -;
#X floatatom 366 -4 5 0 0 0 - - -;
#X obj 317 23 vsl 15 75 0 1 0 0 empty empty x 0 85 0 10 -262144 -1
-1 4297 1;
#X obj 366 23 vsl 15 75 0 1 0 0 empty empty y 0 85 0 10 -262144 -1
-1 2622 1;
#X floatatom 416 -4 5 0 0 0 - - -;
#X obj 417 23 vsl 15 75 0 1 0 0 empty empty z 0 85 0 10 -262144 -1
-1 2549 1;
#N canvas 981 48 499 396 efficient 0;
#X obj 6 7 inlet;
#X obj 6 28 mapping/resample 100;
#X obj 6 50 outlet;
#X obj 54 50 inlet;
#X obj 54 71 mapping/resample 100;
#X obj 54 93 outlet;
#X obj 103 93 inlet;
#X obj 103 114 mapping/resample 100;
#X obj 103 136 outlet;
#X obj 60 290 receive ARDUINO_TEST_RESET;
#X connect 0 0 1 0;
#X connect 1 0 2 0;
#X connect 3 0 4 0;
#X connect 4 0 5 0;
#X connect 6 0 7 0;
#X connect 7 0 8 0;
#X connect 9 0 7 0;
#X connect 9 0 4 0;
#X connect 9 0 1 0;
#X restore 7 -33 pd efficient values;
#X obj 7 -68 route 0 1 2;
#X obj 380 -155 tgl 15 0 empty empty empty 17 7 0 10 -262144 -1 -1
1 1;
#X floatatom 401 -155 5 2 20 0 - - -;
#X obj 572 193 maxlib/scale 0 1 0 10;
#X text 100 165 axis examples: Y = tilt (lean back or forward) X =
twist(like turning a doorknob) Z = lift (picking up or dropping the
device);
#X obj 422 -104 tgl 15 0 empty empty empty 17 7 0 10 -262144 -1 -1
0 1;
#X text 439 -105 Sensitivity On/Off;
#X obj 335 21 s x;
#X obj 384 21 s y;
#X obj 436 21 s z;
#X text 46 -223 Port No.;
#X text 66 -175 Remember to close;
#X text 6 -247 Arduino Connect;
#X obj 40 456 maxlib/scale 0.3 0.7 0 1;
#X obj 936 76 bng 15 250 50 0 empty empty empty 0 -6 0 8 -262144 -1
-1;
#X obj 1059 76 bng 15 250 50 0 empty empty empty 0 -6 0 8 -262144 -1
-1;
#X obj 935 253 bng 15 250 50 0 empty empty empty 0 -6 0 8 -262144 -1
-1;
#X obj 1070 253 bng 15 250 50 0 empty empty empty 0 -6 0 8 -262144
-1 -1;
#X obj 935 189 * -1;
#X floatatom 935 210 5 0 0 0 - - -;
#X obj 572 48 * 10;
#X floatatom 572 71 5 0 0 0 - - -;
#X floatatom 572 216 5 0 0 0 - - -;
#X obj 540 820 dac~;
#X obj 540 794 *~;
#X text 539 837 hear it;
#X obj 555 657 vsl 15 128 0 1 0 0 empty empty gain 0 -8 0 8 -262144
-1 -1 0 1;
#X obj 56 379 osc~ 330;
#X msg 888 479 1;
#X text 790 476 starts playback;
#X obj 930 621 vsl 15 128 0 1 0 0 empty empty sample_dry 0 -8 0 8 -262144
-1 -1 0 1;
#X obj 915 761 *~;
#X obj 888 426 t b b;
#X obj 915 554 +~;
#X obj 522 432 r~ audio;
#X obj 1039 763 *~;
#X obj 1054 623 vsl 15 128 0 1 0 0 empty empty sample_wet 0 -8 0 8
-262144 -1 -1 0 1;
#X obj 915 786 s~ audio_sample;
#X obj 1039 787 s~ audio_sample_delay;
#X obj 522 453 r~ audio_sample;
#X floatatom 1114 537 5 0 0 0 - - -;
#X text 1112 515 delay time (s);
#X obj 1039 586 delay~ 522050;
#X obj 1114 560 * 44100;
#X obj 915 512 readsf~ 2;
#X text 377 -174 smoothing on/off;
#X text 72 -153 To determine port no.;
#X text 84 -69 Route specific pins;
#X text 91 -96 Route analog inputs;
#X obj 56 356 sig~;
#X text 52 316 FREQUENCY 1;
#X text 164 316 FREQUENCY 2;
#X text 3 116 RAW VALUES------------^;
#X text 437 -156 amount (default 3);
#X obj 936 25 r z;
#X obj 935 168 r z;
#X obj 572 25 r x;
#X obj 248 379 phasor~;
#X obj 303 379 cycle~;
#X text 310 117 TWEAKED VALUES--------^;
#X text 932 91 bang;
#X text 1051 91 reset;
#X text 930 268 bang;
#X text 1064 268 reset;
#X text 931 148 Lower Threshold------------;
#X text 934 5 Upper Threshold------------;
#X text 608 48 Multiplication (magnification);
#X text 640 85 Other operators;
#X obj 642 105 +;
#X obj 671 105 -;
#X obj 700 105 * -1;
#X text 733 104 etc.;
#X text 570 5 Mathematical Operators -------------------;
#X obj 572 168 r x;
#X text 569 -28 SCALING DATA;
#X text 935 -28 TRIGGERING EVENTS;
#X text 570 148 Specified Mappings -----------------------;
#X floatatom 572 299 5 0 0 0 - - -;
#X obj 572 251 r x;
#X obj 572 276 maxlib/scale 0.25 0.7 200 600;
#X obj 936 51 threshold 0.9 1 0.5 1;
#X obj 935 231 threshold -0.1 1 -0.5 1;
#X text 614 215 map 0 to 0 map 1 to 10;
#X text 615 299 map 0.25 to 200 \; map 0.7 to 600;
#X msg 915 452 open samples/bell1.wav;
#X obj 379 -217 loadbang;
#X obj 522 473 r~ audio_sample_delay;
#X obj 93 814 s~ audio;
#X obj 522 594 freeverb~;
#X obj 542 543 hsl 200 20 0 1 0 0 empty empty reverb_mix 20 10 0 14
-257472 -1 -1 0 1;
#N canvas 613 434 450 300 reverb 0;
#X obj 119 -107 -;
#X msg 119 -127 1 \$1;
#X obj 68 -183 inlet;
#X obj 77 33 outlet;
#X msg 58 -44 wet \$1;
#X msg 120 -44 dry \$1;
#X connect 0 0 5 0;
#X connect 1 0 0 0;
#X connect 2 0 1 0;
#X connect 2 0 4 0;
#X connect 4 0 3 0;
#X connect 5 0 3 0;
#X restore 539 568 pd reverb;
#X text 537 524 dry;
#X text 725 526 wet;
#X obj 565 498 loadbang;
#X msg 565 521 0;
#X obj 540 622 +~;
#N canvas 84 498 781 386 datacalibration 0;
#X floatatom -55 252 5 0 0 0 - - -;
#X floatatom 142 254 5 0 0 0 - - -;
#X obj -77 326 switch 2;
#X obj -77 276 tgl 15 0 empty empty empty 17 7 0 10 -262144 -1 -1 1
1;
#X obj -77 301 + 1;
#X obj -32 302 average 3;
#X floatatom 19 277 5 2 20 0 - - -;
#X obj -246 194 inlet;
#X text -246 176 raw x;
#X obj -55 194 inlet;
#X obj 142 196 inlet;
#X text -55 176 raw y;
#X text 142 178 raw z;
#X obj 233 29 inlet;
#X text 233 10 smoothing on/off;
#X obj 273 44 inlet;
#X obj -77 357 outlet;
#X obj -268 329 switch 2;
#X obj -268 279 tgl 15 0 empty empty empty 17 7 0 10 -262144 -1 -1
1 1;
#X obj -268 304 + 1;
#X obj -223 305 average 3;
#X floatatom -172 280 5 2 20 0 - - -;
#X obj -268 360 outlet;
#X floatatom -246 254 5 0 0 0 - - -;
#X obj 120 328 switch 2;
#X obj 120 278 tgl 15 0 empty empty empty 17 7 0 10 -262144 -1 -1 1
1;
#X obj 120 303 + 1;
#X obj 165 304 average 3;
#X floatatom 216 279 5 2 20 0 - - -;
#X obj 120 359 outlet;
#X text 344 230 SCALING;
#X text 344 280 AVERAGING;
#X text 344 357 OUTPUT;
#X text 343 194 INPUT;
#X msg -28 143 -0.5;
#X msg 2 143 1.6;
#X msg 43 144 -0.3;
#X msg 73 144 1.7;
#X obj -28 116 sel 1;
#X obj -169 116 sel 0;
#X obj -28 96 tgl 15 0 empty empty empty 17 7 0 10 -262144 -1 -1 0
1;
#X text 273 25 amount;
#X obj 336 75 inlet;
#X text 335 55 sensitivity on/off;
#X text -54 77 SENSITIVITY;
#X text -131 117 Low;
#X text 13 116 High;
#X msg -169 143 0;
#X msg -144 143 1.05;
#X msg -72 144 1.15;
#X obj -246 230 maxlib/scale 0 0.7 0 1.05;
#X obj -55 230 maxlib/scale 0 0.7 0 1.05;
#X msg -102 144 0.05;
#X obj 142 230 maxlib/scale 0 0.7 0.05 1.15;
#X text -244 13 DATA CALIBRATION Takes three analog inputs \, scales
them appropriately \, and also provides the option to smooth the data
via averaging.;
#X connect 2 0 16 0;
#X connect 3 0 4 0;
#X connect 4 0 2 0;
#X connect 5 0 2 2;
#X connect 6 0 5 1;
#X connect 7 0 50 0;
#X connect 9 0 51 0;
#X connect 10 0 53 0;
#X connect 13 0 3 0;
#X connect 13 0 18 0;
#X connect 13 0 25 0;
#X connect 15 0 6 0;
#X connect 15 0 21 0;
#X connect 15 0 28 0;
#X connect 17 0 22 0;
#X connect 18 0 19 0;
#X connect 19 0 17 0;
#X connect 20 0 17 2;
#X connect 21 0 20 1;
#X connect 24 0 29 0;
#X connect 25 0 26 0;
#X connect 26 0 24 0;
#X connect 27 0 24 2;
#X connect 28 0 27 1;
#X connect 34 0 50 3;
#X connect 34 0 51 3;
#X connect 35 0 50 4;
#X connect 35 0 51 4;
#X connect 36 0 53 3;
#X connect 37 0 53 4;
#X connect 38 0 34 0;
#X connect 38 0 35 0;
#X connect 38 0 36 0;
#X connect 38 0 37 0;
#X connect 39 0 47 0;
#X connect 39 0 48 0;
#X connect 39 0 52 0;
#X connect 39 0 49 0;
#X connect 40 0 39 0;
#X connect 40 0 38 0;
#X connect 42 0 40 0;
#X connect 47 0 50 3;
#X connect 47 0 51 3;
#X connect 48 0 50 4;
#X connect 48 0 51 4;
#X connect 49 0 53 4;
#X connect 50 0 23 0;
#X connect 50 0 17 1;
#X connect 50 0 20 0;
#X connect 51 0 0 0;
#X connect 51 0 5 0;
#X connect 51 0 2 1;
#X connect 52 0 53 3;
#X connect 53 0 1 0;
#X connect 53 0 24 1;
#X connect 53 0 27 0;
#X restore 317 -30 pd datacalibration;
#X text 683 -122 PUT SOME AVERAGING DEMO IN HERE;
#X text 521 394 MAIN OUTPUT;
#X text 886 394 PLAY A SAMPLE;
#X text 54 288 XFADE BETWEEN TWO FREQUENCIES;
#X connect 0 0 1 0;
#X connect 0 0 5 0;
#X connect 1 0 4 1;
#X connect 2 0 3 0;
#X connect 3 0 4 0;
#X connect 4 0 6 0;
#X connect 5 0 2 0;
#X connect 6 0 119 0;
#X connect 7 0 1 1;
#X connect 8 0 6 1;
#X connect 9 0 81 0;
#X connect 10 0 11 0;
#X connect 11 0 7 0;
#X connect 13 0 18 0;
#X connect 14 0 13 0;
#X connect 15 0 13 0;
#X connect 16 0 13 0;
#X connect 17 0 16 0;
#X connect 18 0 32 0;
#X connect 19 0 22 0;
#X connect 20 0 23 0;
#X connect 21 0 24 0;
#X connect 25 0 27 0;
#X connect 26 0 28 0;
#X connect 29 0 30 0;
#X connect 31 0 19 0;
#X connect 31 0 128 0;
#X connect 31 1 20 0;
#X connect 31 1 128 1;
#X connect 31 2 21 0;
#X connect 31 2 128 2;
#X connect 32 0 31 0;
#X connect 32 1 31 1;
#X connect 32 2 31 2;
#X connect 33 0 128 3;
#X connect 34 0 128 4;
#X connect 35 0 54 0;
#X connect 37 0 128 5;
#X connect 45 0 0 0;
#X connect 50 0 51 0;
#X connect 51 0 113 0;
#X connect 52 0 53 0;
#X connect 56 0 55 1;
#X connect 56 0 55 0;
#X connect 58 0 56 1;
#X connect 59 0 3 1;
#X connect 60 0 76 0;
#X connect 62 0 63 1;
#X connect 63 0 69 0;
#X connect 64 0 60 0;
#X connect 64 1 116 0;
#X connect 65 0 63 0;
#X connect 65 0 74 0;
#X connect 66 0 120 0;
#X connect 67 0 70 0;
#X connect 68 0 67 1;
#X connect 71 0 120 0;
#X connect 72 0 75 0;
#X connect 74 0 67 0;
#X connect 75 0 74 1;
#X connect 76 0 65 0;
#X connect 76 1 65 1;
#X connect 81 0 59 0;
#X connect 86 0 112 0;
#X connect 87 0 50 0;
#X connect 88 0 52 0;
#X connect 105 0 35 0;
#X connect 110 0 111 0;
#X connect 111 0 109 0;
#X connect 112 0 46 0;
#X connect 112 1 47 0;
#X connect 113 0 48 0;
#X connect 113 1 49 0;
#X connect 116 0 76 0;
#X connect 117 0 33 0;
#X connect 118 0 120 0;
#X connect 120 0 127 0;
#X connect 120 1 127 1;
#X connect 121 0 122 0;
#X connect 122 0 120 0;
#X connect 125 0 126 0;
#X connect 126 0 121 0;
#X connect 127 0 56 0;
#X connect 128 0 25 0;
#X connect 128 0 39 0;
#X connect 128 1 26 0;
#X connect 128 1 40 0;
#X connect 128 2 29 0;
#X connect 128 2 41 0;
#X coords 0 0 1 1 85 60 0;
