#N canvas 132 22 1332 998 10;
#X declare -lib tof;
#X obj 45 542 hsl 200 20 0 1 0 0 empty empty crossfade 20 10 0 14 -257472
-1 -1 9950 1;
#X obj 281 627 *~;
#X obj 42 601 -;
#X obj 42 628 *~;
#X obj 414 851 +~;
#X msg 42 581 1 \$1;
#X obj 413 1026 *~;
#X obj 295 505 osc~ 220;
#X obj 428 886 vsl 15 128 0 1 0 0 empty empty gain 0 -8 0 8 -262144
-1 -1 0 1;
#X floatatom 57 255 5 0 0 0 - - -;
#X floatatom 296 327 5 0 0 0 - - -;
#X obj 296 352 sig~;
#X obj 399 822 freeverb~;
#X obj 418 772 hsl 200 20 0 1 0 0 empty empty reverb_mix 20 10 0 14
-257472 -1 -1 5500 1;
#N canvas 613 434 450 300 reverb 0;
#X obj 119 -107 -;
#X msg 119 -127 1 \$1;
#X obj 68 -183 inlet;
#X obj 77 33 outlet;
#X msg 58 -44 wet \$1;
#X msg 120 -44 dry \$1;
#X connect 0 0 5 0;
#X connect 1 0 0 0;
#X connect 2 0 1 0;
#X connect 2 0 4 0;
#X connect 4 0 3 0;
#X connect 5 0 3 0;
#X restore 415 797 pd reverb;
#X text 413 753 dry;
#X text 600 753 wet;
#X floatatom 98 323 5 0 20000 0 - - -;
#X obj 99 392 *~;
#X floatatom 114 369 5 0 0 0 - - -;
#X obj 128 394 tgl 15 0 empty empty empty 17 7 0 10 -203904 -1 -1 0
1;
#X obj 113 418 *~;
#X obj 1055 -203 pddp/dsp;
#X text 149 370 width;
#X text 134 323 frequency;
#X text 96 283 FREQUENCY MODULATION;
#X text 147 393 ON/OFF;
#X text 53 237 CARRIER FREQUENCY 1;
#X text 243 236 CARRIER FREQ 2;
#X obj 98 301 maxlib/scale 0 1 0 10;
#X obj 439 725 loadbang;
#X msg 439 749 0;
#X text 20 -217 Arduino Connect;
#X obj 639 72 bng 15 250 50 0 empty empty empty 0 -6 0 8 -262144 -1
-1;
#X obj 800 71 bng 15 250 50 0 empty empty empty 0 -6 0 8 -262144 -1
-1;
#X obj 800 5 * -1;
#X floatatom 800 28 5 0 0 0 - - -;
#X obj 944 415 moog~;
#X floatatom 1087 346 5 0 0 0 - - -;
#X floatatom 1024 322 5 0 0 0 - - -;
#X floatatom 866 329 5 0 0 0 - - -;
#X msg 944 389 reset;
#X obj 957 323 +~ 1;
#X floatatom 957 281 5 0 0 0 - - -;
#X floatatom 1021 346 5 0 0 0 - - -;
#X obj 957 364 +~ 100;
#X obj 957 343 *~ 2000;
#X obj 1087 365 sig~ 3;
#X obj 866 357 phasor~ 110;
#X text 1133 346 Q (1-4);
#X obj 944 587 *~;
#X obj 959 448 vsl 15 128 0 1 0 0 empty empty moog 0 -8 0 8 -262144
-1 -1 4854 1;
#X obj 413 1053 dac~;
#X text 448 1052 hear it;
#X obj 1087 259 random 5;
#X obj 1087 281 - 1;
#X obj 866 259 random 1000;
#X obj 866 282 + 110;
#X obj 57 471 osc~ 330;
#X obj 99 347 phasor~;
#X msg 753 739 1;
#X obj 795 831 vsl 15 128 0 1 0 0 empty empty sample_dry 0 -8 0 8 -262144
-1 -1 8143 1;
#X obj 780 971 *~;
#X obj 753 690 t b b;
#X obj 780 795 +~;
#X obj 399 630 r~ audio;
#X obj 1049 993 *~;
#X obj 1064 854 vsl 15 128 0 1 0 0 empty empty sample_wet 0 -8 0 8
-262144 -1 -1 0 1;
#X obj 780 996 s~ audio_sample;
#X obj 1049 1018 s~ audio_sample_delay;
#X obj 399 673 r~ audio_sample;
#X obj 399 697 r~ audio_sample_delay;
#X floatatom 1124 773 5 0 0 0 - - -;
#X text 1122 751 delay time (s);
#X obj 1049 821 delay~ 522050;
#X obj 1124 796 * 44100;
#X obj 780 768 readsf~ 2;
#X obj 639 49 threshold 0.8 1 0.5 1;
#X text 42 100 RAW VALUES------------^;
#X floatatom 381 -22 5 0 0 0 - - -;
#X floatatom 430 -22 5 0 0 0 - - -;
#X obj 381 5 vsl 15 75 0 1 0 0 empty empty x 0 85 0 10 -262144 -1 -1
3289 1;
#X obj 430 5 vsl 15 75 0 1 0 0 empty empty y 0 85 0 10 -262144 -1 -1
4111 1;
#X floatatom 480 -22 5 0 0 0 - - -;
#X obj 481 5 vsl 15 75 0 1 0 0 empty empty z 0 85 0 10 -262144 -1 -1
4568 1;
#X obj 444 -173 tgl 15 0 empty empty empty 17 7 0 10 -262144 -1 -1
0 1;
#X floatatom 465 -173 5 2 20 0 - - -;
#X obj 486 -122 tgl 15 0 empty empty empty 17 7 0 10 -262144 -1 -1
0 1;
#X obj 399 3 s x;
#X obj 448 3 s y;
#X obj 500 3 s z;
#X text 441 -192 smoothing on/off;
#X text 501 -174 amount (default 3);
#N canvas 81 543 781 386 datacalibration 0;
#X floatatom -55 252 5 0 0 0 - - -;
#X floatatom 142 254 5 0 0 0 - - -;
#X obj -77 326 switch 2;
#X obj -77 276 tgl 15 0 empty empty empty 17 7 0 10 -262144 -1 -1 0
1;
#X obj -77 301 + 1;
#X obj -32 302 average 3;
#X floatatom 19 277 5 2 20 0 - - -;
#X obj -246 194 inlet;
#X text -246 176 raw x;
#X obj -55 194 inlet;
#X obj 142 196 inlet;
#X text -55 176 raw y;
#X text 142 178 raw z;
#X obj 233 29 inlet;
#X text 233 10 smoothing on/off;
#X obj 273 44 inlet;
#X obj -77 357 outlet;
#X obj -268 329 switch 2;
#X obj -268 279 tgl 15 0 empty empty empty 17 7 0 10 -262144 -1 -1
0 1;
#X obj -268 304 + 1;
#X obj -223 305 average 3;
#X floatatom -172 280 5 2 20 0 - - -;
#X obj -268 360 outlet;
#X floatatom -246 254 5 0 0 0 - - -;
#X obj 120 328 switch 2;
#X obj 120 278 tgl 15 0 empty empty empty 17 7 0 10 -262144 -1 -1 0
1;
#X obj 120 303 + 1;
#X obj 165 304 average 3;
#X floatatom 216 279 5 2 20 0 - - -;
#X obj 120 359 outlet;
#X text 344 230 SCALING;
#X text 344 280 AVERAGING;
#X text 344 357 OUTPUT;
#X text 343 194 INPUT;
#X obj -28 116 sel 1;
#X obj -169 116 sel 0;
#X obj -28 96 tgl 15 0 empty empty empty 17 7 0 10 -262144 -1 -1 0
1;
#X text 273 25 amount;
#X obj 336 75 inlet;
#X text 335 55 sensitivity on/off;
#X text -54 77 SENSITIVITY;
#X text -131 117 Low;
#X text 13 116 High;
#X text -244 13 DATA CALIBRATION Takes three analog inputs \, scales
them appropriately \, and also provides the option to smooth the data
via averaging.;
#X obj -246 230 maxlib/scale 0.03 0.84 0 1;
#X obj -55 230 maxlib/scale 0.03 0.84 0 1;
#X obj 142 230 maxlib/scale 0.03 0.84 0 1;
#X msg -169 143 0.03;
#X msg -144 143 0.84;
#X msg -102 144 0.03;
#X msg -72 144 0.84;
#X msg -28 143 0.23;
#X msg 2 143 0.64;
#X msg 43 144 0.23;
#X msg 73 144 0.64;
#X connect 2 0 16 0;
#X connect 3 0 4 0;
#X connect 4 0 2 0;
#X connect 5 0 2 2;
#X connect 6 0 5 1;
#X connect 7 0 44 0;
#X connect 9 0 45 0;
#X connect 10 0 46 0;
#X connect 13 0 3 0;
#X connect 13 0 18 0;
#X connect 13 0 25 0;
#X connect 15 0 6 0;
#X connect 15 0 21 0;
#X connect 15 0 28 0;
#X connect 17 0 22 0;
#X connect 18 0 19 0;
#X connect 19 0 17 0;
#X connect 20 0 17 2;
#X connect 21 0 20 1;
#X connect 24 0 29 0;
#X connect 25 0 26 0;
#X connect 26 0 24 0;
#X connect 27 0 24 2;
#X connect 28 0 27 1;
#X connect 34 0 51 0;
#X connect 34 0 52 0;
#X connect 34 0 53 0;
#X connect 34 0 54 0;
#X connect 35 0 47 0;
#X connect 35 0 48 0;
#X connect 35 0 49 0;
#X connect 35 0 50 0;
#X connect 36 0 35 0;
#X connect 36 0 34 0;
#X connect 38 0 36 0;
#X connect 44 0 23 0;
#X connect 44 0 17 1;
#X connect 44 0 20 0;
#X connect 45 0 0 0;
#X connect 45 0 5 0;
#X connect 45 0 2 1;
#X connect 46 0 1 0;
#X connect 46 0 24 1;
#X connect 46 0 27 0;
#X connect 47 0 44 3;
#X connect 47 0 45 3;
#X connect 48 0 44 4;
#X connect 48 0 45 4;
#X connect 49 0 46 3;
#X connect 50 0 46 4;
#X connect 51 0 44 3;
#X connect 51 0 45 3;
#X connect 52 0 44 4;
#X connect 52 0 45 4;
#X connect 53 0 46 3;
#X connect 54 0 46 4;
#X restore 381 -48 pd datacalibration;
#X obj 639 -80 r z;
#X obj 154 871 *~;
#X obj 169 732 vsl 15 128 0 1 0 0 empty empty gain 0 -8 0 8 -262144
-1 -1 5100 1;
#X text 397 584 MAIN OUTPUT;
#X obj 154 697 +~;
#X obj 154 896 s~ audio;
#X obj 800 92 s z_trigger_lo;
#X obj 639 92 s z_trigger_hi;
#X obj 646 174 r z_trigger_hi;
#X obj 739 174 r z_trigger_lo;
#X obj 944 609 send~ audiomoog;
#X obj 399 651 r~ audiomoog;
#X text 636 -104 TRIGGERS;
#X text 955 242 resonance FM;
#X text 869 217 SIGNAL-CONTROLLED 'MOOG' LOWPASS FILTER;
#X text 749 660 PLAY A SAMPLE;
#X msg 113 -131 close;
#N canvas 337 271 687 494 parse 0;
#X obj 140 122 select 13 10;
#X obj 137 32 inlet;
#X obj 147 362 outlet;
#X obj 280 365 outlet;
#X text 207 47 Comport spits out ASCII strings: potPin id \, val \,
carriage return \, newline.;
#X text 230 119 strip off return and bang on each newline;
#X text 211 184 repack \, argument inconsequential since I'm banging
it.;
#X text 256 221 route by ID;
#X text 548 284 ASCII to float;
#X obj 413 362 outlet;
#X obj 142 219 route 48 49 50;
#X obj 142 186 repack 4;
#X obj 147 285 moocow/string2any 16;
#X obj 280 285 moocow/string2any 16;
#X obj 413 286 moocow/string2any 16;
#X connect 0 0 11 0;
#X connect 0 2 11 0;
#X connect 1 0 0 0;
#X connect 10 0 12 0;
#X connect 10 1 13 0;
#X connect 10 2 14 0;
#X connect 11 0 10 0;
#X connect 12 0 2 0;
#X connect 13 0 3 0;
#X connect 14 0 9 0;
#X restore 49 -61 pd parse;
#X text 20 -201 Your port here;
#X msg 22 -132 open \$1;
#X obj 22 -177 hradio 15 1 0 8 empty empty empty 0 -8 0 10 -262144
-1 -1 2;
#X obj 49 -104 comport 0 57600;
#X obj 49 14 vsl 15 60 0.03 0.84 0 0 empty empty x 0 69 0 10 -262144
-1 -1 2622 1;
#X obj 104 14 vsl 15 60 0.03 0.84 0 0 empty empty y 0 69 0 10 -262144
-1 -1 3278 1;
#X obj 160 15 vsl 15 60 0.03 0.84 0 0 empty empty z 0 69 0 10 -262144
-1 -1 3642 1;
#X text 108 -62 Parses by 0 \, 1 \, 2 sees 3-84 as values;
#X msg 113 -154 devices;
#X obj 49 -12 / 100;
#X obj 104 -12 / 100;
#X obj 160 -12 / 100;
#N canvas 36 176 499 396 efficient 0;
#X obj 6 7 inlet;
#X obj 6 50 outlet;
#X obj 54 50 inlet;
#X obj 54 93 outlet;
#X obj 103 93 inlet;
#X obj 103 136 outlet;
#X obj 60 290 receive ARDUINO_TEST_RESET;
#X obj 6 28 mapping/resample 75;
#X obj 54 71 mapping/resample 75;
#X obj 103 114 mapping/resample 75;
#X connect 0 0 7 0;
#X connect 2 0 8 0;
#X connect 4 0 9 0;
#X connect 6 0 7 0;
#X connect 6 0 8 0;
#X connect 6 0 9 0;
#X connect 7 0 1 0;
#X connect 8 0 3 0;
#X connect 9 0 5 0;
#X restore 49 -40 pd efficient values;
#X obj 98 188 r y;
#X text 374 99 CALIBRATED VALUES--------^;
#X obj 180 137 loadbang;
#X obj 57 445 +~;
#X text 506 -124 On/Off;
#X text 485 -142 Less Sensitive;
#X obj 800 49 threshold -0.2 -0.3 -0.5 1;
#X obj 44 496 loadbang;
#X msg 42 519 0.5;
#X msg 181 161 300;
#X text 480 295 attack;
#X obj 482 411 line~;
#X obj 481 315 bng 15 250 50 0 empty empty empty 0 -6 0 8 -262144 -1
-1;
#X obj 296 414 *~;
#X obj 480 246 tgl 15 0 empty empty empty 17 7 0 10 -262144 -1 -1 1
1;
#X obj 480 273 metro 12000;
#X obj 756 363 + 110;
#X obj 755 278 bng 15 250 50 0 empty empty empty 17 7 0 10 -262144
-1 -1;
#X obj 756 314 random 85;
#X obj 481 345 del 6000;
#X msg 481 369 1 6000;
#X msg 1107 317 4;
#X obj 957 302 osc~ 34;
#X msg 957 259 34;
#X obj 1033 186 loadbang;
#X msg 416 345 1.15 6000;
#X floatatom 181 186 5 0 0 0 - - -;
#X obj 277 185 maxlib/scale 0.2 0.8 300 400;
#X obj 276 162 r x;
#X obj 484 198 random 2;
#X floatatom 485 222 5 0 0 0 - - -;
#X obj 506 170 bng 15 250 50 0 empty empty empty 17 7 0 10 -262144
-1 -1;
#X floatatom 376 136 5 0 0 0 - - -;
#X obj 408 162 + 100;
#X obj 207 396 random 2;
#X obj 229 368 bng 15 250 50 0 empty empty empty 17 7 0 10 -262144
-1 -1;
#X obj 628 532 r z;
#X obj 864 683 read-folder;
#X obj 927 664 bng 15 250 50 0 empty empty empty 17 7 0 10 -262144
-1 -1;
#X obj 864 663 bng 15 250 50 0 empty empty empty 17 7 0 10 -262144
-1 -1;
#X obj 971 735 print;
#X msg 802 742 open samples/bell1.wav;
#X msg 780 715 open \$1;
#X obj 926 641 loadbang;
#X symbolatom 876 714 10 0 0 0 - - -;
#X obj 771 562 delay 10;
#X obj 788 504 t f f;
#X obj 444 -219 loadbang;
#X obj 1012 460 r y;
#X msg 538 -213 0;
#X msg 196 353 45;
#X obj 1013 485 maxlib/scale 0.3 0.8 0.05 0.7;
#X obj 637 600 maxlib/scale 0.2 0.8 0.05 0.9;
#X obj 244 210 gate 1;
#X obj 244 182 tgl 15 0 empty empty empty 17 7 0 10 -262144 -1 -1 0
1;
#X obj 246 116 random 2;
#X obj 268 88 bng 15 250 50 0 empty empty empty 17 7 0 10 -262144 -1
-1;
#X connect 0 0 1 0;
#X connect 0 0 5 0;
#X connect 1 0 98 1;
#X connect 2 0 3 0;
#X connect 3 0 98 0;
#X connect 4 0 6 0;
#X connect 5 0 2 0;
#X connect 6 0 52 0;
#X connect 6 0 52 1;
#X connect 7 0 1 1;
#X connect 8 0 6 1;
#X connect 9 0 128 0;
#X connect 10 0 11 0;
#X connect 11 0 138 0;
#X connect 12 0 4 0;
#X connect 12 1 4 1;
#X connect 13 0 14 0;
#X connect 14 0 12 0;
#X connect 17 0 59 0;
#X connect 18 0 21 0;
#X connect 19 0 18 1;
#X connect 20 0 21 1;
#X connect 21 0 128 1;
#X connect 29 0 17 0;
#X connect 30 0 31 0;
#X connect 31 0 13 0;
#X connect 33 0 101 0;
#X connect 34 0 100 0;
#X connect 35 0 36 0;
#X connect 36 0 131 0;
#X connect 37 0 50 0;
#X connect 38 0 47 0;
#X connect 39 0 46 1;
#X connect 40 0 48 0;
#X connect 41 0 37 0;
#X connect 42 0 46 0;
#X connect 43 0 147 0;
#X connect 44 0 45 1;
#X connect 45 0 37 1;
#X connect 46 0 45 0;
#X connect 47 0 37 2;
#X connect 48 0 37 0;
#X connect 50 0 104 0;
#X connect 51 0 50 1;
#X connect 54 0 55 0;
#X connect 55 0 38 0;
#X connect 56 0 57 0;
#X connect 57 0 40 0;
#X connect 58 0 3 1;
#X connect 59 0 18 0;
#X connect 60 0 76 0;
#X connect 61 0 62 1;
#X connect 62 0 68 0;
#X connect 63 0 60 0;
#X connect 63 1 167 0;
#X connect 64 0 62 0;
#X connect 64 0 74 0;
#X connect 65 0 12 0;
#X connect 66 0 69 0;
#X connect 67 0 66 1;
#X connect 70 0 12 0;
#X connect 71 0 12 0;
#X connect 72 0 75 0;
#X connect 74 0 66 0;
#X connect 75 0 74 1;
#X connect 76 0 64 0;
#X connect 76 1 64 1;
#X connect 77 0 33 0;
#X connect 79 0 81 0;
#X connect 80 0 82 0;
#X connect 83 0 84 0;
#X connect 85 0 93 3;
#X connect 86 0 93 4;
#X connect 87 0 93 5;
#X connect 93 0 79 0;
#X connect 93 0 88 0;
#X connect 93 1 80 0;
#X connect 93 1 89 0;
#X connect 93 2 83 0;
#X connect 93 2 90 0;
#X connect 94 0 77 0;
#X connect 94 0 35 0;
#X connect 95 0 99 0;
#X connect 96 0 95 1;
#X connect 98 0 95 0;
#X connect 102 0 142 0;
#X connect 102 0 181 0;
#X connect 103 0 160 0;
#X connect 103 0 171 0;
#X connect 105 0 12 0;
#X connect 110 0 115 0;
#X connect 111 0 124 0;
#X connect 111 1 124 1;
#X connect 111 2 124 2;
#X connect 113 0 115 0;
#X connect 114 0 113 0;
#X connect 115 0 111 0;
#X connect 120 0 115 0;
#X connect 121 0 116 0;
#X connect 121 0 93 0;
#X connect 122 0 117 0;
#X connect 122 0 93 1;
#X connect 123 0 118 0;
#X connect 123 0 93 2;
#X connect 124 0 121 0;
#X connect 124 1 122 0;
#X connect 124 2 123 0;
#X connect 125 0 29 0;
#X connect 127 0 134 0;
#X connect 127 0 175 0;
#X connect 128 0 58 0;
#X connect 131 0 34 0;
#X connect 132 0 133 0;
#X connect 133 0 0 0;
#X connect 134 0 151 0;
#X connect 134 0 157 0;
#X connect 136 0 138 1;
#X connect 137 0 150 0;
#X connect 137 0 144 0;
#X connect 138 0 7 0;
#X connect 139 0 140 0;
#X connect 140 0 137 0;
#X connect 141 0 40 0;
#X connect 142 0 143 0;
#X connect 142 0 54 0;
#X connect 143 0 141 0;
#X connect 144 0 145 0;
#X connect 145 0 136 0;
#X connect 146 0 38 0;
#X connect 147 0 42 0;
#X connect 148 0 43 0;
#X connect 149 0 148 0;
#X connect 149 0 146 0;
#X connect 150 0 136 0;
#X connect 151 0 9 0;
#X connect 151 0 10 0;
#X connect 152 0 178 1;
#X connect 153 0 152 0;
#X connect 154 0 155 0;
#X connect 155 0 139 0;
#X connect 156 0 154 0;
#X connect 157 0 152 3;
#X connect 157 0 158 0;
#X connect 158 0 152 4;
#X connect 159 0 20 0;
#X connect 160 0 159 0;
#X connect 161 0 177 0;
#X connect 162 0 165 0;
#X connect 162 0 169 0;
#X connect 163 0 162 1;
#X connect 164 0 162 0;
#X connect 167 0 76 0;
#X connect 168 0 163 0;
#X connect 169 0 167 0;
#X connect 170 0 63 0;
#X connect 171 0 63 0;
#X connect 171 1 164 0;
#X connect 172 0 174 0;
#X connect 173 0 176 0;
#X connect 174 0 85 0;
#X connect 175 0 19 0;
#X connect 176 0 51 0;
#X connect 177 0 61 0;
#X connect 178 0 151 0;
#X connect 179 0 178 0;
#X connect 180 0 179 0;
#X connect 181 0 180 0;
#X coords 0 0 1 1 85 60 0;
