#N canvas 339 22 1332 998 10;
#X obj 40 578 hsl 200 20 0 1 0 0 empty empty crossfade 20 10 0 14 -257472
-1 -1 4350 1;
#X obj 281 663 *~;
#X obj 37 637 -;
#X obj 37 664 *~;
#X obj 414 851 +~;
#X msg 37 617 1 \$1;
#X obj 413 1026 *~;
#X obj 296 377 osc~ 220;
#X obj 428 886 vsl 15 128 0 1 0 0 empty empty gain 0 -8 0 8 -262144
-1 -1 0 1;
#X floatatom 53 255 5 0 0 0 - - -;
#X floatatom 296 327 5 0 0 0 - - -;
#X obj 296 352 sig~;
#X obj 399 822 freeverb~;
#X obj 418 772 hsl 200 20 0 1 0 0 empty empty reverb_mix 20 10 0 14
-257472 -1 -1 0 1;
#N canvas 613 434 450 300 reverb 0;
#X obj 119 -107 -;
#X msg 119 -127 1 \$1;
#X obj 68 -183 inlet;
#X obj 77 33 outlet;
#X msg 58 -44 wet \$1;
#X msg 120 -44 dry \$1;
#X connect 0 0 5 0;
#X connect 1 0 0 0;
#X connect 2 0 1 0;
#X connect 2 0 4 0;
#X connect 4 0 3 0;
#X connect 5 0 3 0;
#X restore 415 797 pd reverb;
#X text 413 753 dry;
#X text 600 753 wet;
#X obj 52 450 +~;
#X floatatom 77 322 5 0 20000 0 - - -;
#X obj 78 391 *~;
#X floatatom 93 368 5 0 0 0 - - -;
#X obj 107 393 tgl 15 0 empty empty empty 17 7 0 10 -203904 -1 -1 0
1;
#X obj 92 417 *~;
#X obj 1055 -203 pddp/dsp;
#X text 128 369 width;
#X text 113 322 frequency;
#X text 75 282 FREQUENCY MODULATION;
#X text 126 392 ON/OFF;
#X obj 20 -105 arduino 2;
#X msg 31 -156 close;
#X msg 30 -133 devices;
#X msg 20 -179 open \$1;
#X obj 20 -78 route analog;
#X floatatom 19 -3 5 0 0 3 - - -;
#X floatatom 65 -3 5 0 0 3 - - -;
#X floatatom 111 -3 5 0 0 3 - - -;
#X obj 19 23 vsl 15 75 0 1 0 0 empty empty x 0 85 0 10 -262144 -1 -1
3255 1;
#X obj 65 23 vsl 15 75 0 1 0 0 empty empty y 0 85 0 10 -262144 -1 -1
1924 1;
#X obj 111 23 vsl 15 75 0 1 0 0 empty empty z 0 85 0 10 -262144 -1
-1 1591 1;
#N canvas 981 48 499 396 efficient 0;
#X obj 6 7 inlet;
#X obj 6 28 mapping/resample 100;
#X obj 6 50 outlet;
#X obj 54 50 inlet;
#X obj 54 71 mapping/resample 100;
#X obj 54 93 outlet;
#X obj 103 93 inlet;
#X obj 103 114 mapping/resample 100;
#X obj 103 136 outlet;
#X obj 60 290 receive ARDUINO_TEST_RESET;
#X connect 0 0 1 0;
#X connect 1 0 2 0;
#X connect 3 0 4 0;
#X connect 4 0 5 0;
#X connect 6 0 7 0;
#X connect 7 0 8 0;
#X connect 9 0 7 0;
#X connect 9 0 4 0;
#X connect 9 0 1 0;
#X restore 19 -29 pd efficient values;
#X obj 20 -53 route 0 1 2;
#X text 49 237 CARRIER FREQUENCY 1;
#X text 243 236 CARRIER FREQ 2;
#X obj 77 300 maxlib/scale 0 1 0 10;
#X obj 439 725 loadbang;
#X msg 439 749 0;
#X text 79 -156 Remember to close;
#X text 80 -134 To determine port;
#X obj 37 555 maxlib/scale 0.3 0.7 0 1;
#X obj 245 280 moses 273;
#X obj 296 303 average 3;
#X obj 245 256 maxlib/scale 0.6 0.75 273 1900;
#X obj 639 72 bng 15 250 50 0 empty empty empty 0 -6 0 8 -262144 -1
-1;
#X obj 762 71 bng 15 250 50 0 empty empty empty 0 -6 0 8 -262144 -1
-1;
#X obj 800 71 bng 15 250 50 0 empty empty empty 0 -6 0 8 -262144 -1
-1;
#X obj 935 71 bng 15 250 50 0 empty empty empty 0 -6 0 8 -262144 -1
-1;
#X obj 800 5 * -1;
#X floatatom 800 28 5 0 0 0 - - -;
#X text 636 -231 try this: http://puredata.hurleur.com/sujet-1982-diy2-effects-sample-players-synths-sound-synthesis
;
#X obj 944 415 moog~;
#X floatatom 1087 346 5 0 0 0 - - -;
#X floatatom 1024 322 5 0 0 0 - - -;
#X floatatom 866 331 5 0 0 0 - - -;
#X msg 944 389 reset;
#X obj 957 323 +~ 1;
#X floatatom 957 281 5 0 0 0 - - -;
#X floatatom 1021 346 5 0 0 0 - - -;
#X obj 957 364 +~ 100;
#X obj 957 302 osc~ 0.25;
#X obj 957 343 *~ 2000;
#X obj 1087 365 sig~ 3;
#X obj 866 357 phasor~ 110;
#X text 1133 346 Q (1-4);
#X obj 957 259 random 50;
#X obj 944 587 *~;
#X obj 959 448 vsl 15 128 0 1 0 0 empty empty moog 0 -8 0 8 -262144
-1 -1 0 1;
#X obj 413 1053 dac~;
#X text 448 1052 hear it;
#X obj 1087 259 random 5;
#X obj 1087 281 - 1;
#X obj 866 259 random 1000;
#X obj 866 282 + 110;
#X obj 52 484 osc~ 330;
#X obj 78 346 phasor~;
#X msg 753 739 1;
#X obj 795 831 vsl 15 128 0 1 0 0 empty empty sample_dry 0 -8 0 8 -262144
-1 -1 0 1;
#X obj 780 971 *~;
#X obj 753 690 t b b;
#X obj 780 795 +~;
#X obj 399 630 r~ audio;
#X obj 1049 993 *~;
#X obj 1064 854 vsl 15 128 0 1 0 0 empty empty sample_wet 0 -8 0 8
-262144 -1 -1 0 1;
#X obj 780 996 s~ audio_sample;
#X obj 1049 1018 s~ audio_sample_delay;
#X obj 399 673 r~ audio_sample;
#X obj 399 697 r~ audio_sample_delay;
#X floatatom 1124 773 5 0 0 0 - - -;
#X text 1122 751 delay time (s);
#X obj 1049 821 delay~ 522050;
#X obj 1124 796 * 44100;
#X obj 780 768 readsf~ 2;
#X obj 639 49 threshold 0.8 1 0.5 1;
#X obj 800 49 threshold -0.2 1 -0.5 1;
#X text 727 279 comment;
#X text 13 126 RAW VALUES------------^;
#X floatatom 290 2 5 0 0 0 - - -;
#X floatatom 339 2 5 0 0 0 - - -;
#X obj 290 29 vsl 15 75 0 1 0 0 empty empty x 0 85 0 10 -262144 -1
-1 4886 1;
#X obj 339 29 vsl 15 75 0 1 0 0 empty empty y 0 85 0 10 -262144 -1
-1 2886 1;
#X floatatom 389 2 5 0 0 0 - - -;
#X obj 390 29 vsl 15 75 0 1 0 0 empty empty z 0 85 0 10 -262144 -1
-1 2867 1;
#X obj 353 -149 tgl 15 0 empty empty empty 17 7 0 10 -262144 -1 -1
1 1;
#X floatatom 374 -149 5 2 20 0 - - -;
#X obj 395 -98 tgl 15 0 empty empty empty 17 7 0 10 -262144 -1 -1 0
1;
#X text 412 -99 Sensitivity On/Off;
#X obj 308 27 s x;
#X obj 357 27 s y;
#X obj 409 27 s z;
#X text 350 -168 smoothing on/off;
#X text 410 -150 amount (default 3);
#X text 283 123 TWEAKED VALUES--------^;
#X obj 352 -211 loadbang;
#N canvas 84 498 781 386 datacalibration 0;
#X floatatom -55 252 5 0 0 0 - - -;
#X floatatom 142 254 5 0 0 0 - - -;
#X obj -77 326 switch 2;
#X obj -77 276 tgl 15 0 empty empty empty 17 7 0 10 -262144 -1 -1 1
1;
#X obj -77 301 + 1;
#X obj -32 302 average 3;
#X floatatom 19 277 5 2 20 0 - - -;
#X obj -246 194 inlet;
#X text -246 176 raw x;
#X obj -55 194 inlet;
#X obj 142 196 inlet;
#X text -55 176 raw y;
#X text 142 178 raw z;
#X obj 233 29 inlet;
#X text 233 10 smoothing on/off;
#X obj 273 44 inlet;
#X obj -77 357 outlet;
#X obj -268 329 switch 2;
#X obj -268 279 tgl 15 0 empty empty empty 17 7 0 10 -262144 -1 -1
1 1;
#X obj -268 304 + 1;
#X obj -223 305 average 3;
#X floatatom -172 280 5 2 20 0 - - -;
#X obj -268 360 outlet;
#X floatatom -246 254 5 0 0 0 - - -;
#X obj 120 328 switch 2;
#X obj 120 278 tgl 15 0 empty empty empty 17 7 0 10 -262144 -1 -1 1
1;
#X obj 120 303 + 1;
#X obj 165 304 average 3;
#X floatatom 216 279 5 2 20 0 - - -;
#X obj 120 359 outlet;
#X text 344 230 SCALING;
#X text 344 280 AVERAGING;
#X text 344 357 OUTPUT;
#X text 343 194 INPUT;
#X msg -28 143 -0.5;
#X msg 2 143 1.6;
#X msg 43 144 -0.3;
#X msg 73 144 1.7;
#X obj -28 116 sel 1;
#X obj -169 116 sel 0;
#X obj -28 96 tgl 15 0 empty empty empty 17 7 0 10 -262144 -1 -1 0
1;
#X text 273 25 amount;
#X obj 336 75 inlet;
#X text 335 55 sensitivity on/off;
#X text -54 77 SENSITIVITY;
#X text -131 117 Low;
#X text 13 116 High;
#X msg -169 143 0;
#X msg -144 143 1.05;
#X msg -72 144 1.15;
#X obj -246 230 maxlib/scale 0 0.7 0 1.05;
#X obj -55 230 maxlib/scale 0 0.7 0 1.05;
#X msg -102 144 0.05;
#X obj 142 230 maxlib/scale 0 0.7 0.05 1.15;
#X text -244 13 DATA CALIBRATION Takes three analog inputs \, scales
them appropriately \, and also provides the option to smooth the data
via averaging.;
#X connect 2 0 16 0;
#X connect 3 0 4 0;
#X connect 4 0 2 0;
#X connect 5 0 2 2;
#X connect 6 0 5 1;
#X connect 7 0 50 0;
#X connect 9 0 51 0;
#X connect 10 0 53 0;
#X connect 13 0 3 0;
#X connect 13 0 18 0;
#X connect 13 0 25 0;
#X connect 15 0 6 0;
#X connect 15 0 21 0;
#X connect 15 0 28 0;
#X connect 17 0 22 0;
#X connect 18 0 19 0;
#X connect 19 0 17 0;
#X connect 20 0 17 2;
#X connect 21 0 20 1;
#X connect 24 0 29 0;
#X connect 25 0 26 0;
#X connect 26 0 24 0;
#X connect 27 0 24 2;
#X connect 28 0 27 1;
#X connect 34 0 50 3;
#X connect 34 0 51 3;
#X connect 35 0 50 4;
#X connect 35 0 51 4;
#X connect 36 0 53 3;
#X connect 37 0 53 4;
#X connect 38 0 34 0;
#X connect 38 0 35 0;
#X connect 38 0 36 0;
#X connect 38 0 37 0;
#X connect 39 0 47 0;
#X connect 39 0 48 0;
#X connect 39 0 52 0;
#X connect 39 0 49 0;
#X connect 40 0 39 0;
#X connect 40 0 38 0;
#X connect 42 0 40 0;
#X connect 47 0 50 3;
#X connect 47 0 51 3;
#X connect 48 0 50 4;
#X connect 48 0 51 4;
#X connect 49 0 53 4;
#X connect 50 0 23 0;
#X connect 50 0 17 1;
#X connect 50 0 20 0;
#X connect 51 0 0 0;
#X connect 51 0 5 0;
#X connect 51 0 2 1;
#X connect 52 0 53 3;
#X connect 53 0 1 0;
#X connect 53 0 24 1;
#X connect 53 0 27 0;
#X restore 290 -24 pd datacalibration;
#X obj 77 182 r x;
#X obj 245 183 r z;
#X obj 24 182 r z;
#X obj 639 -80 r z;
#X obj 161 903 *~;
#X obj 176 764 vsl 15 128 0 1 0 0 empty empty gain 0 -8 0 8 -262144
-1 -1 0 1;
#X text 397 584 MAIN OUTPUT;
#X obj 161 729 +~;
#X obj 161 928 s~ audio;
#X obj 800 92 s z_trigger_lo;
#X obj 639 92 s z_trigger_hi;
#X obj 646 174 r z_trigger_hi;
#X obj 739 174 r z_trigger_lo;
#X obj 957 174 r z_trigger_lo;
#X obj 944 609 send~ audiomoog;
#X obj 399 651 r~ audiomoog;
#X text 636 -104 TRIGGERS;
#X obj 866 174 r z_trigger_hi;
#X obj 1087 174 r z_trigger_hi;
#X text 955 242 resonance FM;
#X text 869 217 SIGNAL-CONTROLLED 'MOOG' LOWPASS FILTER;
#X text 749 660 PLAY A SAMPLE;
#X obj 465 415 scs_chord;
#X floatatom 515 393 5 0 1 0 - - -;
#X floatatom 422 392 5 0 0 0 - - -;
#X floatatom 473 393 5 0 0 0 - - -;
#X obj 422 302 bng 15 250 50 0 empty empty empty 17 7 0 10 -262144
-1 -1;
#X obj 441 302 bng 15 250 50 0 empty empty empty 17 7 0 10 -262144
-1 -1;
#X obj 460 302 bng 15 250 50 0 empty empty empty 17 7 0 10 -262144
-1 -1;
#X obj 479 302 bng 15 250 50 0 empty empty empty 17 7 0 10 -262144
-1 -1;
#X obj 473 347 bng 15 250 50 0 empty empty empty 17 7 0 10 -262144
-1 -1;
#X obj 492 347 bng 15 250 50 0 empty empty empty 17 7 0 10 -262144
-1 -1;
#X obj 511 347 bng 15 250 50 0 empty empty empty 17 7 0 10 -262144
-1 -1;
#X obj 530 347 bng 15 250 50 0 empty empty empty 17 7 0 10 -262144
-1 -1;
#X floatatom 507 288 5 0 0 0 - - -;
#X floatatom 552 336 5 0 0 0 - - -;
#X obj 522 171 loadbang;
#X floatatom 550 287 5 0 0 0 - - -;
#X floatatom 595 335 5 0 0 0 - - -;
#X obj 422 322 scs_melody;
#X obj 869 785 gate 1;
#X obj 869 757 tgl 15 0 empty empty empty 17 7 0 10 -262144 -1 -1 0
1;
#X text 886 754 loop on/off;
#X obj 774 617 bng 15 250 50 0 empty empty empty 17 7 0 10 -262144
-1 -1;
#X obj 830 792 bng 15 250 50 0 empty empty empty 17 7 0 10 -262144
-1 -1;
#X msg 780 715 open samples/pd_bell.aiff;
#X obj 481 454 vsl 16 35 0 1 0 0 empty empty gain 0 -8 0 8 -262144
-1 -1 0 1;
#X obj 465 498 *~;
#X obj 473 367 scs_melody;
#X obj 446 242 t b b;
#X obj 448 206 bng 15 250 50 0 empty empty empty 17 7 0 10 -262144
-1 -1;
#X obj 582 472 scs_chord;
#X floatatom 632 450 5 0 1 0 - - -;
#X floatatom 539 449 5 0 0 0 - - -;
#X floatatom 590 450 5 0 0 0 - - -;
#X obj 598 511 vsl 16 35 0 1 0 0 empty empty gain 0 -8 0 8 -262144
-1 -1 0 1;
#X obj 582 555 *~;
#X obj 565 358 bng 15 250 50 0 empty empty empty 17 7 0 10 -262144
-1 -1;
#X obj 584 358 bng 15 250 50 0 empty empty empty 17 7 0 10 -262144
-1 -1;
#X obj 603 358 bng 15 250 50 0 empty empty empty 17 7 0 10 -262144
-1 -1;
#X obj 622 358 bng 15 250 50 0 empty empty empty 17 7 0 10 -262144
-1 -1;
#X obj 616 403 bng 15 250 50 0 empty empty empty 17 7 0 10 -262144
-1 -1;
#X obj 635 403 bng 15 250 50 0 empty empty empty 17 7 0 10 -262144
-1 -1;
#X obj 654 403 bng 15 250 50 0 empty empty empty 17 7 0 10 -262144
-1 -1;
#X obj 673 403 bng 15 250 50 0 empty empty empty 17 7 0 10 -262144
-1 -1;
#X floatatom 650 344 5 0 0 0 - - -;
#X floatatom 695 392 5 0 0 0 - - -;
#X floatatom 693 343 5 0 0 0 - - -;
#X floatatom 738 391 5 0 0 0 - - -;
#X obj 565 378 scs_melody;
#X obj 616 423 scs_melody;
#X obj 634 622 scs_pulse;
#X obj 634 596 tgl 15 0 empty empty empty 17 7 0 10 -262144 -1 -1 0
1;
#X floatatom 683 597 5 0 0 0 - - -;
#X obj 639 684 scs_pulse;
#X obj 638 658 tgl 15 0 empty empty empty 17 7 0 10 -262144 -1 -1 0
1;
#X floatatom 687 659 5 0 0 0 - - -;
#X obj 1131 577 bng 15 250 50 0 empty empty empty 17 7 0 10 -262144
-1 -1;
#X symbolatom 1150 603 20 0 0 0 - - -;
#X obj 1170 631 tgl 15 0 empty empty empty 17 7 0 10 -262144 -1 -1
0 1;
#X obj 1207 636 vsl 16 35 0 1 0 0 empty empty gain 0 -8 0 8 -262144
-1 -1 0 1;
#X obj 1129 521 scs_sample;
#X obj 1128 443 bng 15 250 50 0 empty empty empty 17 7 0 10 -262144
-1 -1;
#X symbolatom 1147 469 20 0 0 0 - - -;
#X obj 1167 497 tgl 15 0 empty empty empty 17 7 0 10 -262144 -1 -1
0 1;
#X obj 1204 503 vsl 16 35 0 1 0 0 empty empty gain 0 -8 0 8 -262144
-1 -1 0 1;
#X obj 1132 655 scs_sample;
#X msg 519 226 900;
#X msg 569 231 600;
#X obj 1191 846 bng 15 250 50 0 empty empty empty 17 7 0 10 -262144
-1 -1;
#X symbolatom 1210 872 20 0 0 0 - - -;
#X obj 1230 900 tgl 15 0 empty empty empty 17 7 0 10 -262144 -1 -1
0 1;
#X obj 1267 905 vsl 16 35 0 1 0 0 empty empty gain 0 -8 0 8 -262144
-1 -1 0 1;
#X obj 1192 924 scs_sample;
#X obj 263 835 scs_reverb;
#X obj 320 791 vsl 16 35 0 1 0 0 empty empty mix 0 -8 0 8 -262144 -1
-1 0 1;
#X text 88 -203 Port No.;
#X obj 20 -201 hradio 15 1 0 4 empty empty empty 0 -8 0 10 -262144
-1 -1 0;
#X text 21 -234 ARDUINO CONNECT;
#X text 24 -218 0;
#X text 38 -218 1;
#X text 53 -218 2;
#X text 69 -218 3;
#X connect 0 0 1 0;
#X connect 0 0 5 0;
#X connect 1 0 130 1;
#X connect 2 0 3 0;
#X connect 3 0 130 0;
#X connect 4 0 6 0;
#X connect 5 0 2 0;
#X connect 6 0 76 0;
#X connect 6 0 76 1;
#X connect 7 0 1 1;
#X connect 8 0 6 1;
#X connect 9 0 17 0;
#X connect 10 0 11 0;
#X connect 11 0 7 0;
#X connect 12 0 4 0;
#X connect 12 1 4 1;
#X connect 13 0 14 0;
#X connect 14 0 12 0;
#X connect 17 0 82 0;
#X connect 18 0 83 0;
#X connect 19 0 22 0;
#X connect 20 0 19 1;
#X connect 21 0 22 1;
#X connect 22 0 17 1;
#X connect 28 0 32 0;
#X connect 29 0 28 0;
#X connect 30 0 28 0;
#X connect 31 0 28 0;
#X connect 32 0 40 0;
#X connect 33 0 36 0;
#X connect 34 0 37 0;
#X connect 35 0 38 0;
#X connect 39 0 33 0;
#X connect 39 0 122 0;
#X connect 39 1 34 0;
#X connect 39 1 122 1;
#X connect 39 2 35 0;
#X connect 39 2 122 2;
#X connect 40 0 39 0;
#X connect 40 1 39 1;
#X connect 40 2 39 2;
#X connect 43 0 18 0;
#X connect 44 0 45 0;
#X connect 45 0 13 0;
#X connect 48 0 0 0;
#X connect 49 1 50 0;
#X connect 50 0 10 0;
#X connect 51 0 49 0;
#X connect 52 0 133 0;
#X connect 54 0 132 0;
#X connect 56 0 57 0;
#X connect 57 0 102 0;
#X connect 59 0 74 0;
#X connect 60 0 70 0;
#X connect 61 0 69 1;
#X connect 62 0 71 0;
#X connect 63 0 59 0;
#X connect 64 0 69 0;
#X connect 65 0 68 0;
#X connect 66 0 67 1;
#X connect 67 0 59 1;
#X connect 68 0 64 0;
#X connect 69 0 67 0;
#X connect 70 0 59 2;
#X connect 71 0 59 0;
#X connect 73 0 65 0;
#X connect 74 0 137 0;
#X connect 75 0 74 1;
#X connect 78 0 79 0;
#X connect 79 0 60 0;
#X connect 80 0 81 0;
#X connect 81 0 62 0;
#X connect 82 0 3 1;
#X connect 83 0 19 0;
#X connect 84 0 100 0;
#X connect 85 0 86 1;
#X connect 86 0 92 0;
#X connect 87 0 84 0;
#X connect 87 1 168 0;
#X connect 88 0 86 0;
#X connect 88 0 98 0;
#X connect 89 0 12 0;
#X connect 90 0 93 0;
#X connect 91 0 90 1;
#X connect 94 0 12 0;
#X connect 95 0 12 0;
#X connect 96 0 99 0;
#X connect 98 0 90 0;
#X connect 99 0 98 1;
#X connect 100 0 88 0;
#X connect 100 1 88 1;
#X connect 100 2 163 1;
#X connect 100 2 167 0;
#X connect 101 0 52 0;
#X connect 101 1 53 0;
#X connect 102 0 54 0;
#X connect 102 1 55 0;
#X connect 105 0 107 0;
#X connect 106 0 108 0;
#X connect 109 0 110 0;
#X connect 111 0 122 3;
#X connect 112 0 122 4;
#X connect 113 0 122 5;
#X connect 121 0 111 0;
#X connect 122 0 105 0;
#X connect 122 0 115 0;
#X connect 122 1 106 0;
#X connect 122 1 116 0;
#X connect 122 2 109 0;
#X connect 122 2 117 0;
#X connect 123 0 43 0;
#X connect 124 0 51 0;
#X connect 125 0 48 0;
#X connect 126 0 101 0;
#X connect 126 0 56 0;
#X connect 127 0 131 0;
#X connect 128 0 127 1;
#X connect 130 0 127 0;
#X connect 134 0 87 0;
#X connect 135 0 87 0;
#X connect 136 0 73 0;
#X connect 138 0 12 0;
#X connect 140 0 80 0;
#X connect 141 0 78 0;
#X connect 145 0 170 0;
#X connect 146 0 145 2;
#X connect 147 0 145 0;
#X connect 148 0 145 1;
#X connect 149 0 162 0;
#X connect 150 0 162 1;
#X connect 151 0 162 2;
#X connect 152 0 162 3;
#X connect 153 0 171 0;
#X connect 154 0 171 1;
#X connect 155 0 171 2;
#X connect 156 0 171 3;
#X connect 157 0 162 4;
#X connect 158 0 171 4;
#X connect 159 0 210 0;
#X connect 159 0 211 0;
#X connect 160 0 162 5;
#X connect 161 0 171 5;
#X connect 162 0 147 0;
#X connect 163 0 87 0;
#X connect 164 0 163 0;
#X connect 166 0 87 0;
#X connect 168 0 100 0;
#X connect 169 0 170 1;
#X connect 170 0 217 0;
#X connect 171 0 148 0;
#X connect 172 0 149 0;
#X connect 172 0 153 0;
#X connect 172 0 180 0;
#X connect 172 0 184 0;
#X connect 172 1 152 0;
#X connect 172 1 156 0;
#X connect 172 1 183 0;
#X connect 172 1 187 0;
#X connect 173 0 172 0;
#X connect 174 0 179 0;
#X connect 175 0 174 2;
#X connect 176 0 174 0;
#X connect 177 0 174 1;
#X connect 178 0 179 1;
#X connect 179 0 12 0;
#X connect 180 0 192 0;
#X connect 181 0 192 1;
#X connect 182 0 192 2;
#X connect 183 0 192 3;
#X connect 184 0 193 0;
#X connect 185 0 193 1;
#X connect 186 0 193 2;
#X connect 187 0 193 3;
#X connect 188 0 192 4;
#X connect 189 0 193 4;
#X connect 190 0 192 5;
#X connect 191 0 193 5;
#X connect 192 0 176 0;
#X connect 193 0 177 0;
#X connect 194 0 170 1;
#X connect 195 0 194 0;
#X connect 196 0 194 1;
#X connect 197 0 179 1;
#X connect 198 0 197 0;
#X connect 199 0 197 1;
#X connect 200 0 209 0;
#X connect 201 0 209 1;
#X connect 202 0 209 2;
#X connect 203 0 209 3;
#X connect 204 0 12 0;
#X connect 205 0 204 0;
#X connect 206 0 204 1;
#X connect 207 0 204 2;
#X connect 208 0 204 3;
#X connect 209 0 12 0;
#X connect 210 0 157 0;
#X connect 210 0 158 0;
#X connect 210 0 188 0;
#X connect 210 0 189 0;
#X connect 211 0 160 0;
#X connect 211 0 161 0;
#X connect 211 0 190 0;
#X connect 211 0 191 0;
#X connect 212 0 216 0;
#X connect 213 0 216 1;
#X connect 214 0 216 2;
#X connect 215 0 216 3;
#X connect 216 0 12 0;
#X connect 217 0 6 0;
#X connect 218 0 217 1;
#X connect 220 0 31 0;
#X coords 0 0 1 1 85 60 0;
