#N canvas 212 170 801 633 10;
#X obj 45 255 hsl 200 20 0 1 0 0 empty empty crossfade 20 10 0 14 -257472
-1 -1 9950 1;
#X obj 286 340 *~;
#X obj 42 314 -;
#X obj 42 341 *~;
#X msg 42 294 1 \$1;
#X obj 302 158 osc~ 220;
#X floatatom 57 111 5 0 0 0 - - -;
#X floatatom 302 108 5 0 0 0 - - -;
#X obj 302 133 sig~;
#X obj 57 161 osc~ 330;
#X obj 166 512 *~;
#X obj 181 441 vsl 15 60 0 1 0 0 empty empty gain 0 -8 0 8 -262144
-1 -1 2950 1;
#X obj 166 406 +~;
#X obj 57 137 sig~;
#X text 301 64 FREQUENCY 2;
#X text 53 66 FREQUENCY 1;
#X text 54 8 Two combined pitches (frequencies);
#X obj 166 538 outlet~;
#X text 163 561 Audio output;
#X obj 57 86 inlet;
#X obj 302 83 inlet;
#X floatatom 430 132 5 0 0 0 - - -;
#X obj 430 82 inlet;
#X obj 317 20 loadbang;
#X msg 400 107 0.5;
#X text 430 62 xfade;
#X text 440 104 Initial setting of 0.5 for crossfade and gain (volume)
;
#X msg 102 107 330;
#X msg 348 105 220;
#X connect 0 0 1 0;
#X connect 0 0 4 0;
#X connect 1 0 12 1;
#X connect 2 0 3 0;
#X connect 3 0 12 0;
#X connect 4 0 2 0;
#X connect 5 0 1 1;
#X connect 6 0 13 0;
#X connect 7 0 8 0;
#X connect 8 0 5 0;
#X connect 9 0 3 1;
#X connect 10 0 17 0;
#X connect 11 0 10 1;
#X connect 12 0 10 0;
#X connect 13 0 9 0;
#X connect 19 0 6 0;
#X connect 20 0 7 0;
#X connect 21 0 0 0;
#X connect 22 0 21 0;
#X connect 23 0 24 0;
#X connect 23 0 28 0;
#X connect 23 0 27 0;
#X connect 24 0 21 0;
#X connect 24 0 11 0;
#X connect 27 0 6 0;
#X connect 28 0 7 0;
