#N canvas 226 23 1332 998 10;
#X declare -lib tof;
#X obj 94 478 hsl 200 20 0 1 0 0 empty empty crossfade 20 10 0 14 -257472
-1 -1 17223 1;
#X obj 203 568 *~;
#X obj 91 537 -;
#X obj 91 564 *~;
#X obj 145 616 +~;
#X msg 91 517 1 \$1;
#X obj 144 789 *~;
#X obj 158 646 vsl 15 128 0 1 0 0 empty empty osc 0 -8 0 8 -262144
-1 -1 0 1;
#X floatatom 107 334 5 0 0 0 - - -;
#X floatatom 220 334 5 0 0 0 - - -;
#X obj 1148 -231 pddp/dsp;
#X obj 673 65 maxlib/scale 0 1 0 10;
#X text 27 159 axis examples: Y = tilt (lean back or forward) X = twist(like
turning a doorknob) Z = lift (picking up or dropping the device);
#X obj 985 -52 bng 15 250 50 0 empty empty empty 0 -6 0 8 -262144 -1
-1;
#X obj 673 -80 * 10;
#X floatatom 673 -57 5 0 0 0 - - -;
#X floatatom 673 88 5 0 0 0 - - -;
#X obj 716 721 dac~;
#X obj 716 695 *~;
#X text 715 738 hear it;
#X obj 731 558 vsl 25 128 0 1 0 0 empty empty gain 0 -8 0 8 -262144
-1 -1 4750 1;
#X msg 977 380 1;
#X text 1012 379 starts playback;
#X obj 1019 522 vsl 15 128 0 1 0 0 empty empty sample_dry 0 -8 0 8
-262144 -1 -1 10900 1;
#X obj 1004 662 *~;
#X obj 977 302 t b b;
#X obj 1004 455 +~;
#X obj 698 333 r~ audio;
#X obj 1128 664 *~;
#X obj 1143 524 vsl 15 128 0 1 0 0 empty empty sample_wet 0 -8 0 8
-262144 -1 -1 8000 1;
#X obj 1004 754 s~ audio_sample;
#X obj 1128 688 s~ audio_sample_delay;
#X obj 698 354 r~ audio_sample;
#X floatatom 1203 438 5 0 0 0 - - -;
#X text 1201 416 delay time (s);
#X obj 1128 487 delay~ 522050;
#X obj 1203 461 * 44100;
#X obj 1004 413 readsf~ 2;
#X text 103 316 FREQUENCY 1;
#X text 215 316 FREQUENCY 2;
#X obj 299 379 phasor~;
#X obj 354 379 cycle~;
#X text 709 -80 Multiplication (magnification);
#X text 741 -43 Other operators;
#X obj 743 -23 +;
#X obj 772 -23 -;
#X obj 801 -23 * -1;
#X text 834 -24 etc.;
#X text 671 -123 Mathematical Operators -------------------;
#X text 670 -156 SCALING DATA;
#X text 986 -156 TRIGGERING EVENTS;
#X text 671 20 Specified Mappings -----------------------;
#X floatatom 673 171 5 0 0 0 - - -;
#X obj 698 374 r~ audio_sample_delay;
#X obj 144 814 s~ audio;
#X obj 698 495 freeverb~;
#X obj 718 444 hsl 200 20 0 1 0 0 empty empty reverb_mix 20 10 0 14
-257472 -1 -1 0 1;
#N canvas 613 434 450 300 reverb 0;
#X obj 119 -107 -;
#X msg 119 -127 1 \$1;
#X obj 68 -183 inlet;
#X obj 77 33 outlet;
#X msg 58 -44 wet \$1;
#X msg 120 -44 dry \$1;
#X connect 0 0 5 0;
#X connect 1 0 0 0;
#X connect 2 0 1 0;
#X connect 2 0 4 0;
#X connect 4 0 3 0;
#X connect 5 0 3 0;
#X restore 715 469 pd reverb;
#X text 713 425 dry;
#X text 901 427 wet;
#X obj 741 399 loadbang;
#X msg 741 422 0;
#X obj 716 523 +~;
#X text 697 295 MAIN OUTPUT;
#X text 975 270 PLAY A SAMPLE;
#X text 105 288 XFADE BETWEEN TWO FREQUENCIES;
#X text 31 115 RAW VALUES------------^;
#X floatatom 350 -7 5 0 0 0 - - -;
#X floatatom 399 -7 5 0 0 0 - - -;
#X obj 350 20 vsl 15 75 0 1 0 0 empty empty x 0 85 0 10 -262144 -1
-1 4732 1;
#X obj 399 20 vsl 15 75 0 1 0 0 empty empty y 0 85 0 10 -262144 -1
-1 2734 1;
#X floatatom 449 -7 5 0 0 0 - - -;
#X obj 450 20 vsl 15 75 0 1 0 0 empty empty z 0 85 0 10 -262144 -1
-1 2303 1;
#X obj 428 -69 tgl 15 0 empty empty empty 17 7 0 10 -262144 -1 -1 0
1;
#X floatatom 455 -69 5 2 20 0 - - -;
#X obj 368 18 s x;
#X obj 417 18 s y;
#X obj 469 18 s z;
#X text 425 -88 smoothing on/off;
#X text 491 -70 amount (default 3);
#N canvas 62 549 691 474 datacalibration 0;
#X floatatom -55 252 5 0 0 0 - - -;
#X floatatom 142 254 5 0 0 0 - - -;
#X obj -77 326 switch 2;
#X obj -77 276 tgl 15 0 empty empty empty 17 7 0 10 -262144 -1 -1 0
1;
#X obj -77 301 + 1;
#X obj -32 302 average 3;
#X floatatom 19 277 5 2 20 0 - - -;
#X obj -246 194 inlet;
#X text -246 176 raw x;
#X obj -55 194 inlet;
#X obj 142 196 inlet;
#X text -55 176 raw y;
#X text 142 178 raw z;
#X obj 304 45 inlet;
#X text 304 26 smoothing on/off;
#X obj 344 60 inlet;
#X obj -77 357 outlet;
#X obj -268 329 switch 2;
#X obj -268 279 tgl 15 0 empty empty empty 17 7 0 10 -262144 -1 -1
0 1;
#X obj -268 304 + 1;
#X obj -223 305 average 3;
#X floatatom -172 280 5 2 20 0 - - -;
#X obj -268 360 outlet;
#X floatatom -246 254 5 0 0 0 - - -;
#X obj 120 328 switch 2;
#X obj 120 278 tgl 15 0 empty empty empty 17 7 0 10 -262144 -1 -1 0
1;
#X obj 120 303 + 1;
#X obj 165 304 average 3;
#X floatatom 216 279 5 2 20 0 - - -;
#X obj 120 359 outlet;
#X text 344 230 SCALING;
#X text 344 280 AVERAGING;
#X text 344 357 OUTPUT;
#X text 343 194 INPUT;
#X text 344 41 amount;
#X text -254 7 DATA CALIBRATION Takes three analog inputs \, scales
them appropriately \, and also provides the option to smooth the data
via averaging.;
#X obj 261 75 t a;
#X msg 260 53 0;
#X obj 240 28 loadbang;
#X obj -246 230 maxlib/scale 0.21 0.49 0 1;
#X obj -59 230 maxlib/scale 0.15 0.58 0 1;
#X obj 142 230 maxlib/scale 0.25 0.7 0 1;
#X connect 2 0 16 0;
#X connect 3 0 4 0;
#X connect 4 0 2 0;
#X connect 5 0 2 2;
#X connect 6 0 5 1;
#X connect 7 0 39 0;
#X connect 9 0 40 0;
#X connect 10 0 41 0;
#X connect 13 0 36 0;
#X connect 15 0 6 0;
#X connect 15 0 21 0;
#X connect 15 0 28 0;
#X connect 17 0 22 0;
#X connect 18 0 19 0;
#X connect 19 0 17 0;
#X connect 20 0 17 2;
#X connect 21 0 20 1;
#X connect 24 0 29 0;
#X connect 25 0 26 0;
#X connect 26 0 24 0;
#X connect 27 0 24 2;
#X connect 28 0 27 1;
#X connect 36 0 18 0;
#X connect 36 0 3 0;
#X connect 36 0 25 0;
#X connect 37 0 36 0;
#X connect 38 0 37 0;
#X connect 39 0 23 0;
#X connect 39 0 17 1;
#X connect 39 0 20 0;
#X connect 40 0 0 0;
#X connect 40 0 5 0;
#X connect 40 0 2 1;
#X connect 41 0 1 0;
#X connect 41 0 24 1;
#X connect 41 0 27 0;
#X restore 350 -32 pd datacalibration;
#X obj 38 29 vsl 15 60 0.03 0.84 0 0 empty empty x 0 69 0 10 -262144
-1 -1 2615 1;
#X obj 93 29 vsl 15 60 0.03 0.84 0 0 empty empty y 0 69 0 10 -262144
-1 -1 2031 1;
#X obj 149 30 vsl 15 60 0.03 0.84 0 0 empty empty z 0 69 0 10 -262144
-1 -1 2622 1;
#N canvas 36 176 499 396 efficient 0;
#X obj 6 7 inlet;
#X obj 6 50 outlet;
#X obj 54 50 inlet;
#X obj 54 93 outlet;
#X obj 103 93 inlet;
#X obj 103 136 outlet;
#X obj 60 290 receive ARDUINO_TEST_RESET;
#X obj 6 28 mapping/resample 75;
#X obj 54 71 mapping/resample 75;
#X obj 103 114 mapping/resample 75;
#X connect 0 0 7 0;
#X connect 2 0 8 0;
#X connect 4 0 9 0;
#X connect 6 0 7 0;
#X connect 6 0 8 0;
#X connect 6 0 9 0;
#X connect 7 0 1 0;
#X connect 8 0 3 0;
#X connect 9 0 5 0;
#X restore 38 -25 pd efficient values;
#X text 343 114 CALIBRATED VALUES--------^;
#X obj 91 456 maxlib/scale 0.15 0.6 0 1;
#X obj 33 433 loadbang;
#X msg 33 456 0;
#X msg 49 -155 close;
#X msg 48 -132 devices;
#X msg 38 -178 open \$1;
#X obj 38 -77 route analog;
#X obj 38 -52 route 0 1 2;
#X text 97 -155 Remember to close;
#X text 98 -133 To determine port;
#X floatatom 363 613 5 0 1 0 - - -;
#X floatatom 296 587 5 0 0 0 - - -;
#X floatatom 321 610 5 0 0 0 - - -;
#X obj 363 568 vsl 15 35 0 1 0 0 empty empty xfade 0 -8 0 8 -262144
-1 -1 0 1;
#X obj 296 635 scs_chord;
#X text 292 532 XFADE ABSTRACTION;
#X text 291 663 Abstractions are patches you create and embed into
other patches as if it were an object. This becomes useful when you
are repeatedly using a section of your patch. Note that saving the
abstracted patch will change the object in every single instance it's
used. Abstractions differ from subpatches [pd foo] in that subpatches
are exclusive to their parent. Note: abstracted patches must be in
the same directory as the patch you want to embed them in.;
#X text 106 -202 Port No.;
#X obj 38 -200 hradio 15 1 0 4 empty empty empty 0 -8 0 10 -262144
-1 -1 3;
#X text 39 -233 ARDUINO CONNECT;
#X text 42 -217 0;
#X text 56 -217 1;
#X text 71 -217 2;
#X text 87 -217 3;
#X obj 38 -104 arduino;
#X text 732 92 0 to 1 --> 1 to 10;
#X text 726 176 0.25 to 0.7 --> 200 to 600;
#X obj 673 123 r z;
#X obj 673 40 r z;
#X obj 985 -103 r z;
#X obj 673 -104 r z;
#X text 985 -123 Threshold------------;
#X obj 1108 -7 bng 15 250 50 0 empty empty empty 0 -6 0 8 -262144 -1
-1;
#X text 981 -37 bang when crossing above 0.5;
#X text 1104 8 bang when crossing below 0.2;
#X obj 767 496 loadbang;
#X msg 767 518 0.5;
#X obj 677 219 r x;
#X floatatom 651 288 5 0 0 0 - - -;
#X obj 346 220 average 5;
#X floatatom 399 163 5 0 0 0 - - -;
#X floatatom 21 536 5 0 0 0 - - -;
#X floatatom 47 601 5 0 0 0 - - -;
#X obj 673 148 maxlib/scale 0.25 0.7 200 400;
#X obj 107 379 cycle~ 150;
#X obj 220 378 cycle~ 170;
#X obj 674 251 maxlib/scale 0.25 0.7 0 1;
#X obj 1098 199 scs_filechooser;
#X obj 1098 169 bng 15 250 50 0 empty empty empty 17 7 0 10 -262144
-1 -1;
#X obj 1185 178 bng 15 250 50 0 empty empty empty 17 7 0 10 -262144
-1 -1;
#X symbolatom 1098 228 30 0 0 0 - - -;
#X text 1094 150 2 Pick a file;
#X text 1206 175 1 Set folder;
#X msg 1099 260 open \$1;
#X obj 985 -77 threshold 0.9 0 0.6 1;
#X floatatom 554 440 0 0 0 0 - - -;
#X floatatom 463 360 0 0 0 0 - - -;
#X obj 463 383 osc~ 100;
#X msg 522 407 clear;
#X text 508 358 <- scroll to change input frequency;
#X text 566 486;
#X obj 586 456 vsl 15 128 0 1 0 0 empty empty sample_dry 0 -8 0 8 -262144
-1 -1 12700 1;
#X obj 571 596 *~;
#X obj 572 280 vsl 15 128 0 3000 0 0 empty empty sample_dry 0 -8 0
8 -262144 -1 -1 100 1;
#X msg 1004 353 open samples/loop_rain.wav;
#X obj 498 287 noise~;
#X obj 484 553 lop~ 5;
#X obj 251 88 expr;
#X connect 0 0 1 0;
#X connect 0 0 5 0;
#X connect 0 0 127 0;
#X connect 1 0 4 1;
#X connect 2 0 3 0;
#X connect 2 0 128 0;
#X connect 3 0 4 0;
#X connect 4 0 6 0;
#X connect 5 0 2 0;
#X connect 6 0 54 0;
#X connect 7 0 6 1;
#X connect 8 0 130 0;
#X connect 9 0 131 0;
#X connect 11 0 16 0;
#X connect 13 0 25 0;
#X connect 14 0 15 0;
#X connect 18 0 17 1;
#X connect 18 0 17 0;
#X connect 20 0 18 1;
#X connect 21 0 37 0;
#X connect 23 0 24 1;
#X connect 24 0 152 0;
#X connect 25 0 21 0;
#X connect 25 1 150 0;
#X connect 26 0 24 0;
#X connect 26 0 35 0;
#X connect 27 0 55 0;
#X connect 28 0 31 0;
#X connect 29 0 28 1;
#X connect 32 0 55 0;
#X connect 33 0 36 0;
#X connect 35 0 28 0;
#X connect 36 0 35 1;
#X connect 37 0 26 0;
#X connect 37 1 26 1;
#X connect 52 0 125 0;
#X connect 52 0 9 0;
#X connect 53 0 55 0;
#X connect 55 0 62 0;
#X connect 55 1 62 1;
#X connect 56 0 57 0;
#X connect 57 0 55 0;
#X connect 60 0 61 0;
#X connect 61 0 56 0;
#X connect 62 0 18 0;
#X connect 67 0 69 0;
#X connect 68 0 70 0;
#X connect 71 0 72 0;
#X connect 73 0 80 3;
#X connect 74 0 80 4;
#X connect 80 0 67 0;
#X connect 80 0 75 0;
#X connect 80 1 68 0;
#X connect 80 1 76 0;
#X connect 80 2 71 0;
#X connect 80 2 77 0;
#X connect 84 0 81 0;
#X connect 84 0 80 0;
#X connect 84 1 82 0;
#X connect 84 1 80 1;
#X connect 84 2 83 0;
#X connect 84 2 80 2;
#X connect 86 0 0 0;
#X connect 87 0 88 0;
#X connect 88 0 86 0;
#X connect 89 0 110 0;
#X connect 90 0 110 0;
#X connect 91 0 110 0;
#X connect 92 0 93 0;
#X connect 93 0 84 0;
#X connect 93 1 84 1;
#X connect 93 2 84 2;
#X connect 96 0 100 2;
#X connect 97 0 100 0;
#X connect 98 0 100 1;
#X connect 99 0 96 0;
#X connect 104 0 91 0;
#X connect 110 0 92 0;
#X connect 113 0 129 0;
#X connect 114 0 11 0;
#X connect 115 0 140 0;
#X connect 116 0 14 0;
#X connect 121 0 122 0;
#X connect 122 0 20 0;
#X connect 123 0 132 0;
#X connect 125 0 8 0;
#X connect 125 0 142 0;
#X connect 126 0 125 1;
#X connect 129 0 52 0;
#X connect 130 0 3 1;
#X connect 131 0 1 1;
#X connect 132 0 124 0;
#X connect 132 0 0 0;
#X connect 133 0 136 0;
#X connect 134 0 133 0;
#X connect 135 0 133 1;
#X connect 136 0 139 0;
#X connect 139 0 37 0;
#X connect 140 0 13 0;
#X connect 140 1 118 0;
#X connect 141 0 152 1;
#X connect 142 0 143 0;
#X connect 144 0 152 0;
#X connect 147 0 148 1;
#X connect 148 0 55 0;
#X connect 149 0 141 0;
#X connect 150 0 37 0;
#X connect 151 0 152 0;
#X connect 152 0 148 0;
#X coords 0 0 1 1 85 60 0;
